<svg width="22" height="22" viewBox="0 0 22 22" fill="none" xmlns="http://www.w3.org/2000/svg">
<path d="M15.7025 18.975L19.525 15.18L18.37 14.025L15.7025 16.6375L14.63 15.565L13.475 16.7475L15.7025 18.975ZM3.3 6.6H16.5V4.4H3.3V6.6ZM16.5 22C14.9783 22 13.6814 21.4636 12.6093 20.3907C11.5372 19.3178 11.0007 18.0209 11 16.5C10.9993 14.9791 11.5357 13.6822 12.6093 12.6093C13.6829 11.5364 14.9798 11 16.5 11C18.0202 11 19.3175 11.5364 20.3918 12.6093C21.4661 13.6822 22.0022 14.9791 22 16.5C21.9978 18.0209 21.4614 19.3182 20.3907 20.3918C19.32 21.4654 18.0231 22.0015 16.5 22ZM0 20.9V0H19.8V9.5425C19.2867 9.28583 18.7502 9.09773 18.1907 8.9782C17.6312 8.85867 17.0676 8.79927 16.5 8.8H3.3V11H11.11C10.7983 11.3117 10.5098 11.6508 10.2443 12.0175C9.97883 12.3842 9.7449 12.7783 9.5425 13.2H3.3V15.4H8.8825C8.84583 15.5833 8.8231 15.7623 8.8143 15.9368C8.8055 16.1113 8.80073 16.2991 8.8 16.5C8.8 17.27 8.9056 18.0081 9.1168 18.7143C9.328 19.4205 9.64406 20.0941 10.065 20.735L9.9 20.9L8.25 19.25L6.6 20.9L4.95 19.25L3.3 20.9L1.65 19.25L0 20.9Z" fill="#868686"/>
</svg>
