<svg width="24" height="24" viewBox="0 0 24 24" fill="none" xmlns="http://www.w3.org/2000/svg">
<path d="M5.125 22.2304L6.60742 21.0527L8.29492 21.8893L7.66406 20.0796L8.96094 18.6912L7.08984 18.7514L6.20312 17.056L5.67773 18.9039L3.83203 19.2449L5.38086 20.3284L5.125 22.2304ZM12 24L12.709 22.2184L14.5762 22.0759L13.1484 20.832L13.5957 18.962L12.002 19.9753L10.4082 18.962L10.8555 20.832L9.42383 22.0759L11.291 22.2184L12 24ZM6.47852 10.5273C7.3457 10.1943 8.45312 9.76894 9.25 9.26133C10.1641 10.1321 10.7578 11.1232 10.8047 12.327H13.2031C13.25 11.1232 13.8438 10.1321 14.7578 9.26133C15.5547 9.76894 16.6621 10.1923 17.5293 10.5273C20.084 11.5084 18.8359 13.3001 17.3457 14.8089C15.9785 16.1913 14.0898 17.046 12.002 17.046C9.91406 17.046 8.02734 16.1933 6.6582 14.8089C5.18945 13.3222 3.90625 11.5145 6.47852 10.5273ZM10.1211 8.03745C10.1602 7.70841 9.21484 6.46246 9.04297 5.86257C8.67188 5.26066 8.54102 4.29761 8.94531 3.65959C9.10742 3.40679 9.03711 2.95335 9.03711 2.60625C9.03711 -0.866744 14.9609 -0.870757 14.9609 2.60625C14.9609 3.04564 14.8633 3.38071 15.0957 3.7258C15.4844 4.30363 15.2832 5.32888 14.9551 5.86658C14.7461 6.49457 13.7539 7.68433 13.8242 8.04146C13.8828 9.8211 10.1074 9.76292 10.1211 8.03745ZM24 16.9637L22.8535 15.4429L23.668 13.7094L21.9043 14.3595L20.5527 13.0273L20.6113 14.9493L18.9609 15.8602L20.7598 16.3979L21.0918 18.2939L22.1445 16.7029L24 16.9637ZM18.875 22.2304L18.623 20.3224L20.1719 19.2389L18.3281 18.8958L17.8047 17.048L16.918 18.7434L15.0449 18.6832L16.3418 20.0716L15.7051 21.8853L17.3926 21.0487L18.875 22.2304ZM0 16.9617L1.85742 16.7029L2.91211 18.2939L3.24609 16.3999L5.04492 15.8622L3.39453 14.9513L3.45312 13.0293L2.09961 14.3615L0.332031 13.7094L1.14648 15.4429L0 16.9617Z" fill="white"/>
</svg>
