<svg xmlns="http://www.w3.org/2000/svg" width="22" height="22" fill="none" viewBox="0 0 22 22"><g clip-path="url(#clip0_656_2844)"><path fill="#8d8d8d" d="M10.084 17.417v-2.75a2.75 2.75 0 0 0-2.75-2.75h-2.75a2.75 2.75 0 0 0-2.75 2.75v2.75a2.75 2.75 0 0 0 2.75 2.75h2.75a2.75 2.75 0 0 0 2.75-2.75m-7.334 0v-2.75a1.833 1.833 0 0 1 1.834-1.834h2.75a1.833 1.833 0 0 1 1.833 1.834v2.75a1.833 1.833 0 0 1-1.833 1.833h-2.75a1.833 1.833 0 0 1-1.834-1.833m17.417-2.75a2.75 2.75 0 0 0-2.75-2.75h-2.75a2.75 2.75 0 0 0-2.75 2.75v2.75a2.75 2.75 0 0 0 2.75 2.75h2.75a2.75 2.75 0 0 0 2.75-2.75zm-.917 2.75a1.833 1.833 0 0 1-1.833 1.833h-2.75a1.833 1.833 0 0 1-1.833-1.833v-2.75a1.834 1.834 0 0 1 1.833-1.834h2.75a1.833 1.833 0 0 1 1.833 1.834zm.917-12.834a2.75 2.75 0 0 0-2.75-2.75h-2.75a2.75 2.75 0 0 0-2.75 2.75v2.75a2.75 2.75 0 0 0 2.75 2.75h2.75a2.75 2.75 0 0 0 2.75-2.75zm-.917 2.75a1.833 1.833 0 0 1-1.833 1.834h-2.75a1.833 1.833 0 0 1-1.833-1.834v-2.75a1.833 1.833 0 0 1 1.833-1.833h2.75a1.833 1.833 0 0 1 1.833 1.833zM1.834 4.583v2.75a2.75 2.75 0 0 0 2.75 2.75h2.75a2.75 2.75 0 0 0 2.75-2.75v-2.75a2.75 2.75 0 0 0-2.75-2.75h-2.75a2.75 2.75 0 0 0-2.75 2.75m.916 0A1.833 1.833 0 0 1 4.584 2.75h2.75a1.833 1.833 0 0 1 1.833 1.833v2.75a1.833 1.833 0 0 1-1.833 1.834h-2.75A1.833 1.833 0 0 1 2.75 7.333zm5.96 10.302-3.157 3.144-1.67-1.67.677-.677.993.998 2.48-2.472z"/></g><defs><clipPath id="clip0_656_2844"><path fill="#fff" d="M0 0h22v22H0z"/></clipPath></defs></svg>