<svg xmlns="http://www.w3.org/2000/svg" width="22" height="22" fill="none" viewBox="0 0 22 22"><path fill="#8d8d8d" d="M7.792 12.833a1.146 1.146 0 1 0 0-2.291 1.146 1.146 0 0 0 0 2.291m0 3.209a1.146 1.146 0 1 0 0-2.292 1.146 1.146 0 0 0 0 2.292m4.354-4.354a1.146 1.146 0 1 1-2.291 0 1.146 1.146 0 0 1 2.291 0M11 16.042a1.146 1.146 0 1 0 0-2.292 1.146 1.146 0 0 0 0 2.292m4.354-4.354a1.146 1.146 0 1 1-2.291 0 1.146 1.146 0 0 1 2.291 0"/><path fill="#8d8d8d" fill-rule="evenodd" d="M7.334 2.98a.687.687 0 0 1 .687.687v.687h5.958v-.687a.688.688 0 0 1 1.375 0v.695q.21.005.39.02c.348.027.675.09.983.247.475.242.86.628 1.102 1.102.158.309.22.635.248.984.027.334.027.742.027 1.233v7.021c0 .49 0 .899-.027 1.233-.028.348-.09.675-.248.984a2.52 2.52 0 0 1-1.1 1.102c-.31.157-.637.22-.985.247-.335.028-.743.028-1.232.028H7.489c-.49 0-.898 0-1.233-.028-.348-.027-.674-.09-.983-.247a2.52 2.52 0 0 1-1.102-1.1c-.158-.31-.22-.637-.248-.985-.027-.335-.027-.742-.027-1.232V7.948c0-.49 0-.899.028-1.233.027-.349.09-.675.247-.984A2.52 2.52 0 0 1 5.273 4.63c.309-.157.635-.22.983-.247q.18-.015.39-.02v-.695a.687.687 0 0 1 .688-.688m9.395 6.416H5.271v5.546c0 .524 0 .877.023 1.147.021.264.06.39.102.473.11.216.285.39.501.5.083.043.208.082.471.103.272.022.624.023 1.149.023h6.966c.525 0 .878 0 1.148-.023.264-.021.39-.06.472-.102.216-.11.392-.286.502-.502.042-.082.08-.208.101-.472.022-.27.023-.623.023-1.147zm-7.104-2.98a.687.687 0 0 0 0 1.376h2.75a.687.687 0 0 0 0-1.375z" clip-rule="evenodd"/></svg>