<svg xmlns="http://www.w3.org/2000/svg" width="22" height="22" fill="none" viewBox="0 0 22 22"><path fill="#8d8d8d" d="M2.75 11.917a8.25 8.25 0 0 0 8.25 8.25 8.233 8.233 0 0 0-8.25-8.25M11 5.042a2.292 2.292 0 1 1 0 4.583 2.292 2.292 0 0 1 0-4.583M5.133 9.396a2.29 2.29 0 0 0 2.292 2.292 2.2 2.2 0 0 0 1.283-.404v.174a2.292 2.292 0 0 0 4.584 0v-.174a2.2 2.2 0 0 0 1.283.404 2.29 2.29 0 0 0 2.292-2.292c0-.917-.541-1.696-1.311-2.063a2.29 2.29 0 0 0 1.31-2.062 2.29 2.29 0 0 0-2.291-2.292 2.16 2.16 0 0 0-1.283.404v-.175a2.292 2.292 0 0 0-4.584 0v.175a2.16 2.16 0 0 0-1.283-.404 2.29 2.29 0 0 0-2.292 2.292c0 .907.541 1.696 1.311 2.062a2.28 2.28 0 0 0-1.31 2.063M11 20.166a8.25 8.25 0 0 0 8.25-8.25 8.216 8.216 0 0 0-8.25 8.25"/></svg>