<?xml version="1.0" encoding="UTF-8"?>
<!DOCTYPE svg PUBLIC "-//W3C//DTD SVG 1.1//EN" "http://www.w3.org/Graphics/SVG/1.1/DTD/svg11.dtd">
<!-- Creator: CorelDRAW 2021 (64-Bit) -->
<svg xmlns="http://www.w3.org/2000/svg" xml:space="preserve" width="95.454mm" height="101.963mm" version="1.1" style="shape-rendering:geometricPrecision; text-rendering:geometricPrecision; image-rendering:optimizeQuality; fill-rule:evenodd; clip-rule:evenodd"
viewBox="0 0 1876.2 2004.15"
 xmlns:xlink="http://www.w3.org/1999/xlink"
 xmlns:xodm="http://www.corel.com/coreldraw/odm/2003">
 <g id="Layer_x0020_1">
  <metadata id="CorelCorpID_0Corel-Layer"/>
  <path fill="#253245" d="M523.83 226.19c-96.83,165.96 -84.05,412.95 -104.33,617.81 -10.73,108.34 -24.99,213.51 -42.94,319.45l-54.91 265.97c-11.77,60.13 -6.11,26.65 10.48,39.49l116.72 -13.75c195.81,-22.02 304.01,-63.59 299.68,-281.74l1.79 -107.55c-96.1,-80 -111.86,-198.45 -141.94,-223.73 -42.46,-35.69 -55.7,20.14 -91.8,-95.34 -14.88,-47.6 -22.95,-126.24 -8.08,-172.11 31.45,15.91 0.14,-4.13 15.28,11.32l34.33 50.1c10.31,13.5 34.93,50.37 44.45,58.04 48.86,-79.04 59.74,-418.54 286.43,-270.84 65.69,42.8 131.95,101.57 194.63,123.85 52.87,18.8 88.29,6.96 107.71,52.67 20.5,48.27 23.43,79.23 63.06,96.91 49.39,-42.35 62.09,-104.48 107.91,-122.39 14.57,47.4 7.22,121 -8.76,172.87 -35.05,113.77 -47.68,58.68 -91.8,94.24 -14.48,11.68 -48.53,100.76 -61.7,125.91 -26.84,51.25 -63.04,77.15 -81.58,108.48 -1.01,85.57 -2.83,138.89 25.47,216.38 10.83,29.67 25.04,54.24 41.4,76.02 22.53,29.97 41.24,32.77 67.28,58.34 26.51,3.26 48.31,13.45 76.99,18.79 29.16,5.43 62.21,6.65 91.98,9.55l111.9 12.92c25.32,-4.82 9.4,7.92 20.56,-9.25 -47.85,-205.72 -80.82,-399.84 -103.36,-618 -24.58,-237.8 -10.06,-407.88 -103.29,-616 -215.02,-362.98 -737.13,-228.96 -823.56,1.58z"/>
  <path fill="#FBD1B1" d="M750.32 1065.88c14.46,10.66 21.22,20.38 38.44,33.19 38.81,28.87 91.22,62.38 140.72,65.35 77.42,4.63 159.05,-73.82 188.99,-88.55 18.54,-31.33 54.74,-57.23 81.58,-108.48 13.17,-25.15 47.22,-114.23 61.7,-125.91 44.12,-35.56 56.74,19.53 91.8,-94.24 15.98,-51.87 23.33,-125.47 8.76,-172.87 -45.83,17.91 -58.53,80.04 -107.91,122.39 -39.64,-17.69 -42.56,-48.65 -63.06,-96.91 -19.42,-45.71 -54.84,-33.87 -107.71,-52.67 -62.68,-22.29 -128.94,-81.05 -194.63,-123.85 -226.69,-147.7 -237.56,191.79 -286.43,270.84 -9.53,-7.67 -34.15,-44.53 -44.45,-58.04l-34.33 -50.1c-15.14,-15.45 16.17,4.59 -15.28,-11.32 -14.87,45.87 -6.79,124.51 8.08,172.11 36.09,115.48 49.34,59.65 91.8,95.34 30.07,25.28 45.84,143.73 141.94,223.73z"/>
  <path fill="#909090" d="M1533.49 1467.87l0 4.46c43.71,2.44 84,13.75 113.83,29.8 34.7,18.67 58.3,52.87 93.1,52.87 60.18,-119.58 109.19,-209.68 128.75,-368.63 18.59,-151.07 -0.66,-304.93 -46.14,-434.96 -44.26,-126.55 -111.98,-230.26 -187.11,-312.23 -49.99,-54.54 -188.86,-188.21 -288.53,-214.55 93.23,208.12 78.71,378.2 103.29,616 22.55,218.16 55.51,412.28 103.36,618 -11.15,17.17 4.76,4.43 -20.56,9.25z"/>
  <path fill="#909090" d="M140.91 1562.77c28.66,-8.85 14.57,-3.26 38.32,-28.37 15.21,-16.08 20.7,-18.1 40.08,-28.86 32.76,-18.18 68.36,-31.02 112.82,-33.29l0 -3.34c-16.59,-12.84 -22.25,20.64 -10.48,-39.49l54.91 -265.97c17.95,-105.94 32.21,-211.11 42.94,-319.45 20.28,-204.86 7.5,-451.85 104.33,-617.81 -104.16,39.58 -224.62,145.62 -286.1,215.66 -75.02,85.47 -139.09,182.07 -185.24,313.82 -71.79,204.96 -70.01,429.21 5.72,637.03 24.64,67.61 55.94,112.13 82.69,170.08z"/>
  <path fill="#FF0B01" d="M332.13 1468.91l0 3.34c22.48,23.71 -37.13,226.81 -33.2,277.16 134.43,152.04 412.57,254.41 636.5,254.73 137.99,0.2 260.33,-29.11 372.66,-75.64 73.71,-30.54 243.89,-132.98 264.7,-176.32 -10.29,-58.45 -44.65,-235.09 -39.3,-279.85l0 -4.46 -111.9 -12.92c-29.94,50.02 -42.45,88.61 -80.96,138.81 -185.27,241.46 -502.61,287.76 -712.29,102.51 -112.6,-99.48 -113.39,-123.69 -179.47,-241.11l-116.72 13.75z"/>
  <path fill="#FBD1B1" d="M748.54 1173.43c4.33,218.15 -103.87,259.71 -299.68,281.74 66.08,117.41 66.87,141.63 179.47,241.11 209.68,185.24 527.02,138.94 712.29,-102.51 38.51,-50.19 51.02,-88.78 80.96,-138.81 -29.77,-2.91 -62.81,-4.12 -91.98,-9.55 -28.68,-5.34 -50.49,-15.52 -76.99,-18.79 -128.69,-1.51 -220.76,-28.99 -296.31,-92.86 -34.77,-29.39 -65.72,-59.41 -95.36,-98.77 -29.65,-39.36 -48.72,-68.09 -98.86,-95.99l-13.54 34.43z"/>
  <path fill="#6B6B6B" d="M748.54 1173.43l13.54 -34.43c50.14,27.9 69.22,56.63 98.86,95.99 29.64,39.35 60.59,69.37 95.36,98.77 75.55,63.87 167.62,91.35 296.31,92.86 -26.04,-25.57 -44.75,-28.38 -67.28,-58.34 -16.37,-21.77 -30.57,-46.35 -41.4,-76.02 -28.29,-77.5 -26.48,-130.82 -25.47,-216.38 -29.94,14.74 -111.57,93.18 -188.99,88.55 -49.49,-2.96 -101.91,-36.47 -140.72,-65.35 -17.22,-12.81 -23.98,-22.53 -38.44,-33.19l-1.79 107.55z"/>
  <path fill="#FBD1B1" d="M1572.78 1752.18c50.3,-29.14 133.94,-142.98 167.63,-197.18 -34.81,0 -58.4,-34.19 -93.1,-52.87 -29.83,-16.05 -70.12,-27.36 -113.83,-29.8 -5.35,44.76 29,221.4 39.3,279.85z"/>
  <path fill="#FBD1B1" d="M140.91 1562.77l18.56 27.66c5.81,8.06 12.46,17.11 17.28,23.83l122.18 135.15c-3.93,-50.35 55.68,-253.45 33.2,-277.16 -44.46,2.27 -80.06,15.11 -112.82,33.29 -19.38,10.76 -24.87,12.78 -40.08,28.86 -23.76,25.11 -9.66,19.51 -38.32,28.37z"/>
 </g>
</svg>
