<svg xmlns="http://www.w3.org/2000/svg" width="26" height="25" fill="none" viewBox="0 0 26 25"><mask id="mask0_784_453" width="26" height="25" x="0" y="0" maskUnits="userSpaceOnUse" style="mask-type:luminance"><path fill="#fff" stroke="#fff" stroke-linecap="round" stroke-linejoin="round" stroke-width="2" d="M9 6.334h14.667c.733 0 1.333.6 1.333 1.333v14.667c0 .733-.6 1.333-1.333 1.333H2.333c-.733 0-1.333-.6-1.333-1.334V7.668c0-.733.6-1.333 1.333-1.333z"/><path stroke="#fff" stroke-linecap="round" stroke-linejoin="round" stroke-width="2" d="M9 6.333v-4C9 1.6 9.6 1 10.333 1h5.334C16.4 1 17 1.6 17 2.333v4"/><path stroke="#000" stroke-dasharray="8 8" stroke-linecap="round" stroke-linejoin="round" stroke-width="2" d="M13 11.667v8m-4-4h8"/></mask><g mask="url(#mask0_784_453)"><path fill="#fff" d="M-3-3h32v32H-3z"/></g></svg>