<svg width="22" height="22" viewBox="0 0 22 22" fill="none" xmlns="http://www.w3.org/2000/svg">
<path d="M4.8125 2.75C4.26549 2.75 3.74089 2.9673 3.35409 3.35409C2.9673 3.74089 2.75 4.26549 2.75 4.8125V6.1875C2.75 6.36984 2.67757 6.5447 2.54864 6.67364C2.4197 6.80257 2.24484 6.875 2.0625 6.875C1.88016 6.875 1.7053 6.80257 1.57636 6.67364C1.44743 6.5447 1.375 6.36984 1.375 6.1875V4.8125C1.375 3.90082 1.73716 3.02648 2.38182 2.38182C3.02648 1.73716 3.90082 1.375 4.8125 1.375H6.1875C6.36984 1.375 6.5447 1.44743 6.67364 1.57636C6.80257 1.7053 6.875 1.88016 6.875 2.0625C6.875 2.24484 6.80257 2.4197 6.67364 2.54864C6.5447 2.67757 6.36984 2.75 6.1875 2.75H4.8125ZM4.8125 19.25C4.26549 19.25 3.74089 19.0327 3.35409 18.6459C2.9673 18.2591 2.75 17.7345 2.75 17.1875V15.8125C2.75 15.6302 2.67757 15.4553 2.54864 15.3264C2.4197 15.1974 2.24484 15.125 2.0625 15.125C1.88016 15.125 1.7053 15.1974 1.57636 15.3264C1.44743 15.4553 1.375 15.6302 1.375 15.8125V17.1875C1.375 18.0992 1.73716 18.9735 2.38182 19.6182C3.02648 20.2628 3.90082 20.625 4.8125 20.625H6.1875C6.36984 20.625 6.5447 20.5526 6.67364 20.4236C6.80257 20.2947 6.875 20.1198 6.875 19.9375C6.875 19.7552 6.80257 19.5803 6.67364 19.4514C6.5447 19.3224 6.36984 19.25 6.1875 19.25H4.8125ZM19.25 4.8125C19.25 4.26549 19.0327 3.74089 18.6459 3.35409C18.2591 2.9673 17.7345 2.75 17.1875 2.75H15.8125C15.6302 2.75 15.4553 2.67757 15.3264 2.54864C15.1974 2.4197 15.125 2.24484 15.125 2.0625C15.125 1.88016 15.1974 1.7053 15.3264 1.57636C15.4553 1.44743 15.6302 1.375 15.8125 1.375H17.1875C18.0992 1.375 18.9735 1.73716 19.6182 2.38182C20.2628 3.02648 20.625 3.90082 20.625 4.8125V6.1875C20.625 6.36984 20.5526 6.5447 20.4236 6.67364C20.2947 6.80257 20.1198 6.875 19.9375 6.875C19.7552 6.875 19.5803 6.80257 19.4514 6.67364C19.3224 6.5447 19.25 6.36984 19.25 6.1875V4.8125ZM17.1875 19.25C17.7345 19.25 18.2591 19.0327 18.6459 18.6459C19.0327 18.2591 19.25 17.7345 19.25 17.1875V15.8125C19.25 15.6302 19.3224 15.4553 19.4514 15.3264C19.5803 15.1974 19.7552 15.125 19.9375 15.125C20.1198 15.125 20.2947 15.1974 20.4236 15.3264C20.5526 15.4553 20.625 15.6302 20.625 15.8125V17.1875C20.625 18.0992 20.2628 18.9735 19.6182 19.6182C18.9735 20.2628 18.0992 20.625 17.1875 20.625H15.8125C15.6302 20.625 15.4553 20.5526 15.3264 20.4236C15.1974 20.2947 15.125 20.1198 15.125 19.9375C15.125 19.7552 15.1974 19.5803 15.3264 19.4514C15.4553 19.3224 15.6302 19.25 15.8125 19.25H17.1875ZM6.1875 11C6.1875 10.8177 6.25993 10.6428 6.38886 10.5139C6.5178 10.3849 6.69266 10.3125 6.875 10.3125H15.125C15.3073 10.3125 15.4822 10.3849 15.6111 10.5139C15.7401 10.6428 15.8125 10.8177 15.8125 11C15.8125 11.1823 15.7401 11.3572 15.6111 11.4861C15.4822 11.6151 15.3073 11.6875 15.125 11.6875H6.875C6.69266 11.6875 6.5178 11.6151 6.38886 11.4861C6.25993 11.3572 6.1875 11.1823 6.1875 11ZM6.875 13.75C6.69266 13.75 6.5178 13.8224 6.38886 13.9514C6.25993 14.0803 6.1875 14.2552 6.1875 14.4375C6.1875 14.6198 6.25993 14.7947 6.38886 14.9236C6.5178 15.0526 6.69266 15.125 6.875 15.125H11.6875C11.8698 15.125 12.0447 15.0526 12.1736 14.9236C12.3026 14.7947 12.375 14.6198 12.375 14.4375C12.375 14.2552 12.3026 14.0803 12.1736 13.9514C12.0447 13.8224 11.8698 13.75 11.6875 13.75H6.875ZM6.1875 7.5625C6.1875 7.38016 6.25993 7.2053 6.38886 7.07636C6.5178 6.94743 6.69266 6.875 6.875 6.875H15.125C15.3073 6.875 15.4822 6.94743 15.6111 7.07636C15.7401 7.2053 15.8125 7.38016 15.8125 7.5625C15.8125 7.74484 15.7401 7.9197 15.6111 8.04864C15.4822 8.17757 15.3073 8.25 15.125 8.25H6.875C6.69266 8.25 6.5178 8.17757 6.38886 8.04864C6.25993 7.9197 6.1875 7.74484 6.1875 7.5625Z" fill="#8D8D8D"/>
</svg>
