<svg xmlns="http://www.w3.org/2000/svg" width="24" height="24" fill="none" viewBox="0 0 24 24"><g clip-path="url(#clip0_805_414)"><path fill="#fff" d="M24 12q0 2.438-.953 4.656-.954 2.22-2.563 3.828-1.61 1.61-3.828 2.563T12 24q-2.688 0-5.11-1.133a11.7 11.7 0 0 1-4.124-3.195.56.56 0 0 1-.102-.352.46.46 0 0 1 .133-.32l2.14-2.156a.56.56 0 0 1 .391-.14q.25.03.36.187a7.84 7.84 0 0 0 2.796 2.297A7.9 7.9 0 0 0 12 20q1.625 0 3.102-.633a8.1 8.1 0 0 0 2.554-1.71 8.1 8.1 0 0 0 1.711-2.555A7.8 7.8 0 0 0 20 12q0-1.625-.633-3.102a8.1 8.1 0 0 0-1.71-2.554 8.1 8.1 0 0 0-2.555-1.711A7.8 7.8 0 0 0 12 4q-1.53 0-2.937.555t-2.5 1.586l2.14 2.156q.485.469.219 1.078Q8.656 10 8 10H1a.96.96 0 0 1-.703-.297A.96.96 0 0 1 0 9V2q0-.656.625-.922.61-.266 1.078.219l2.031 2.016A12.1 12.1 0 0 1 7.554.866 11.8 11.8 0 0 1 12 0q2.438 0 4.656.953 2.22.954 3.828 2.563 1.61 1.61 2.563 3.828T24 12M14 7.5v7a.5.5 0 0 1-.14.36.5.5 0 0 1-.36.14h-5a.5.5 0 0 1-.36-.14.5.5 0 0 1-.14-.36v-1q0-.219.14-.36A.5.5 0 0 1 8.5 13H12V7.5q0-.219.14-.36A.5.5 0 0 1 12.5 7h1q.219 0 .36.14t.14.36"/></g><defs><clipPath id="clip0_805_414"><path fill="#fff" d="M0 0h24v24H0z"/></clipPath></defs></svg>