<svg xmlns="http://www.w3.org/2000/svg" width="20" height="21" fill="none" viewBox="0 0 20 21"><path fill="#868686" d="M15.714 12.6c2.364 0 4.286 1.884 4.286 4.2S18.078 21 15.714 21a4.3 4.3 0 0 1-3.677-2.054l-2.04-3.5-2.116 3.632A4.3 4.3 0 0 1 4.286 21C1.922 21 0 19.116 0 16.8s1.922-4.2 4.286-4.2c1.25 0 2.374.53 3.158 1.371l.855-1.444L3.24 3.825C2.45 2.485 2.92.773 4.286 0l5.7 9.677L15.714 0c1.367.774 1.835 2.486 1.046 3.825l-5.08 8.729.851 1.444a4.3 4.3 0 0 1 3.183-1.398m0 7c1.576 0 2.857-1.256 2.857-2.8S17.29 14 15.714 14c-1.575 0-2.857 1.256-2.857 2.8s1.282 2.8 2.857 2.8M4.286 14c-1.576 0-2.857 1.256-2.857 2.8s1.281 2.8 2.857 2.8c1.575 0 2.857-1.256 2.857-2.8S5.86 14 4.286 14M10 11.2a.71.71 0 0 0-.714.7c0 .386.32.7.714.7a.71.71 0 0 0 .714-.7c0-.386-.32-.7-.714-.7"/></svg>