<svg xmlns="http://www.w3.org/2000/svg" width="16" height="23" fill="none" viewBox="0 0 16 23"><path fill="#868686" d="M13.18 10.587a5.55 5.55 0 0 1-4.09 1.817 4.94 4.94 0 0 1-2.613-.72c-2.159-1.25-3.106-3.976-2.31-6.437.076-.265.34-.455.644-.455.114 0 .227.038.34.076l7.878 4.62a.67.67 0 0 1 .34.492c0 .227-.075.455-.188.606zM0 22.63c-.037-.985 1.705-5.227 4.848-11.21.341.341.758.682 1.212.947a6.5 6.5 0 0 0 1.401.606C3.825 18.54.909 22.175 0 22.63M15.83 5.474 13.255 8.77l-.758-.454 2.007-3.712c.227-.379.72-.53 1.098-.303.417.265.53.795.227 1.174zm-2.384-1.439-2.423 3.408-.72-.417L12.12 3.24a.742.742 0 0 1 1.061-.341.78.78 0 0 1 .265 1.136M11.06 2.596l-2.273 3.56-.72-.417 1.591-3.863c.19-.455.72-.606 1.136-.379.379.227.492.72.265 1.098M8.786.778a.73.73 0 0 1-.114.379L6.552 4.83l-.758-.416 1.439-3.9c.15-.456.72-.645 1.136-.418a.8.8 0 0 1 .417.682"/></svg>