<svg xmlns="http://www.w3.org/2000/svg" width="28" height="28" fill="none" viewBox="0 0 28 28"><g fill-rule="evenodd" clip-path="url(#clip0_174_753)" clip-rule="evenodd"><path fill="#868686" d="M10.218 19.153c2.068 0 2.556 2.689.888 3.506-.748.366-1.582.226-2.187-.378-1.11-1.107-.317-3.128 1.299-3.128m1.246-1.039c-.705-.164-.602-.286-1.578-.207-.91.074-1.837.707-2.285 1.456-.51.854-.615 1.83-.24 2.77.143.356.257.518.446.801-.057.043-.665.771-.665.997 0 .496.211.707.706.707.367 0 .854-.803.873-.873.258.022 1.62.923 3.259-.149 1.3-.85 1.76-2.566 1.12-3.896-.144-.297-.352-.694-.597-.858.143-.272.314-.532.48-.808.267-.443.548-.983.895-1.35.52-.547 1.438-.648 2.109-.329.39.186.773.539 1.262-.205l3.474-4.962c.44-.649.838-1.332 1.104-2.095.564-1.618.79-3.162.549-4.902-.05-.36-.095-.85-.69-.85-.45 0-.566.367-.813.724-.12.173-.206.287-.325.465l-.939 1.388c-.212.319-.418.608-.64.94l-6.308 9.275z"/><path fill="#868686" d="M17.698 19.153c2.057 0 2.562 2.686.888 3.506-.943.462-2.084.112-2.55-.93-.533-1.19.375-2.576 1.662-2.576m-2.95-1.579c.04.153.623 1.053.748 1.288-.246.164-.454.561-.597.859-.545 1.13-.291 2.604.642 3.5.824.791 1.991 1.13 3.129.768.138-.044.147-.069.275-.098.342.23.398.748.956.748.446 0 .888-.535.426-1.091a5 5 0 0 1-.301-.405c.127-.19.37-.392.552-.819.62-1.452.178-3.072-1.07-3.9-.314-.209-.9-.478-1.355-.514-1.012-.08-.894.037-1.618.205-.242-.458-.187-.23-.636-.403-.523-.2-.606-.502-1.15-.137z"/><path fill="#dcdcdc" d="M3.361 7.726c0 .278.049.536.371.667.123.05.62.065.824.091C5.898 8.661 7.28 9.68 8.763 9.68c1.929 0 2.287-.465 3.932-1.014 1.853-.618 2.915.223 3.424.266l.706-1.039c-.604-.32-1.88-.706-2.577-.706-1.338 0-1.698.148-2.873.617-.374.15-.684.273-1.09.406-2.564.843-3.556-1.024-6.384-1.024-.255 0-.54.285-.54.54"/><path fill="#dcdcdc" d="M3.362 10.219c0 .819.56.675 1.194.759 1.342.177 2.726 1.194 4.208 1.194 1.336 0 1.655-.13 2.843-.606.681-.272 1.582-.64 2.351-.64.252 0 .52.063.748.082l.748-1.122c-.41-.196-1.2-.207-1.704-.207-.864 0-1.754.37-2.375.617-2.1.84-2.624.84-4.725 0-.999-.4-1.528-.617-2.748-.617-.256 0-.54.285-.54.54"/><path fill="#868686" d="M8.847 13.377c.059.252 1.369 2.008 1.579 2.327.12.182.42.639.582.748l2.244-3.325c-.126-.237-.309-.484-.457-.706-.481.112-1.517.73-2.828.912-.23.032-.947.127-1.12.044m-3.283-7.23c.623.145 1.171.368 1.733.593.295.118.552.22.848.316.37.12.555.13 1.034.13-.053-.2-2.045-3.082-2.318-3.5-.134-.206-.309-.303-.483-.323h-.144a.66.66 0 0 0-.517.36c-.13.289-.14 1.247-.183 1.563-.045.32.03.536.03.861"/><path fill="#dcdcdc" d="M22.103 11.34c.147-.012.49-.16.659-.213a5 5 0 0 1 .718-.154c.206-.022.656-.033.787-.087a.58.58 0 0 0 .37-.506v-.127c-.025-.296-.231-.575-.54-.575-.335 0-1.128-.049-1.277.218-.052.093-.086.223-.135.323-.19.386-.385.748-.582 1.122m1.205-2.826c.588-.137 1.33.122 1.33-.79 0-.255-.286-.54-.54-.54h-.541c-.004.193-.081.513-.114.676-.044.218-.13.45-.135.654"/></g><defs><clipPath id="clip0_174_753"><path fill="#fff" d="M0 0h28v28H0z"/></clipPath></defs></svg>