<svg xmlns="http://www.w3.org/2000/svg" width="23" height="23" fill="none" viewBox="0 0 23 23"><g fill="#868686" fill-rule="evenodd" clip-path="url(#clip0_186_896)" clip-rule="evenodd"><path d="M10.648 6.162h1.706A3.356 3.356 0 0 1 15.7 9.508v2.69c0 1.573-1.1 2.901-2.57 3.254v2.036h3.314a3.03 3.03 0 0 1 3.02 3.02H3.538a3.03 3.03 0 0 1 3.02-3.02h3.314v-2.036a3.36 3.36 0 0 1-2.57-3.255V9.508a3.356 3.356 0 0 1 3.347-3.346m2.968 5.876a2.154 2.154 0 0 1-4.16 0 .309.309 0 0 1 .594-.16 1.538 1.538 0 0 0 2.97 0 .308.308 0 0 1 .596.16"/><path d="M12.535 5.523s-3.25-.2-4.774 1.275-1 3.625-1 3.625.732 3.361-1.357 1.095-.548-5.063-.548-5.063S6.125 4.143 9.45 3.593s3.085 1.93 3.085 1.93"/><path d="M10.987 2.707s4.127 2.476 5.09 5.09c0 0 .712 1.938.712 4.438 0 0 2.81-1.256 1.62-5.36 0 0-1.746-5.526-7.422-4.168"/></g><defs><clipPath id="clip0_186_896"><path fill="#fff" d="M0 0h23v23H0z"/></clipPath></defs></svg>