<svg xmlns="http://www.w3.org/2000/svg" width="18" height="21" fill="none" viewBox="0 0 18 21"><path fill="#868686" fill-rule="evenodd" d="M15.405 1.136c0 .444-.002.725.394 1.107.798.77 2.201.215 2.201-.985C18 .603 17.474 0 16.622 0c-.59 0-1.217.56-1.217 1.136m-6.895.892c0 .677.403 1.094.447 1.258-.626.014-1.217.61-1.217 1.46a1.405 1.405 0 0 0 2.65.582c.05-.078.013-.032.067-.095.228.98 1.675 1.686 2.636 1.176.027.33.243.68.434.864a1.2 1.2 0 0 0 .393.257 1.394 1.394 0 0 0 1.97-1.201c0-.495-.049-.72-.434-1.106-.337-.338-.66-.395-1.147-.395l.01-.379a1.95 1.95 0 0 0-1.09-1.664c-.31-.158-.435-.147-.786-.23.115-.494.122-.902-.094-1.366l-.382-.591c-.332-.36-.833-.568-1.34-.598h-.255a1.9 1.9 0 0 0-.765.205c-.156.08-.442.279-.554.42-.295.373-.543.752-.543 1.403m-3.972.325c-.177-.12-.34-.252-.562-.33-1.71-.611-3.137.845-2.773 2.408.043.184.118.275.131.437C.446 5.075-.81 7.334.715 8.854c1.752 1.745 4.43.42 4.43-1.796 0-.278-.069-.505-.12-.73.373.25.569.609 1.5.609.496 0 .693-.188.932-.243-.097-.146-.22-.225-.342-.388-.627-.836-.79-1.816-.307-2.777.078-.155.14-.3.255-.434.119-.138.224-.29.353-.376-.108-.467.012-.47-.477-.78-.794-.504-1.956-.25-2.402.415z" clip-rule="evenodd"/><path fill="#868686" fill-rule="evenodd" d="M6.2 8.113c-.074.155-.13.363-.203.527-.2.446-.6 1.01-.973 1.299-.92.711-1.471.892-2.676.892-.356 0-.56-.097-.851-.121-.343 1.47-.527 3.332.244 4.663.344.595.74.967 1.297 1.34 0-.283-.041-.396-.041-.69 0-.867-.123-1.604.476-2.201.293-.293.563-.49 1.067-.556 1.227-.16 2.305-.909 2.78-2.046.413-.994.13-1.623.983-2.262.857-.643 2.763-.302 3.564.017.61.244 1.24.627 1.663 1.054.248.25.417.413.637.702 1.253 1.652 1.036 3.237 1.036 5.291 0 .294-.04.406-.04.69 1.122-.752 1.824-1.88 1.824-3.367 0-1.098-.04-1.933-.36-2.885-.143-.429-.402-1.054-.63-1.438-.074-.125-.237-.349-.267-.463-.173.04-.331.129-.54.19-.972.282-2.114-.093-2.658-.805-.166-.218-.15-.185-.492-.197a2.7 2.7 0 0 1-.584-.106 3.2 3.2 0 0 1-.957-.462c-.437-.32-.152-.039-.983.072-.64.086-.375-.186-1.118.26-.85.512-1.173.601-2.197.601z" clip-rule="evenodd"/><path fill="#868686" fill-rule="evenodd" d="M4.172 15.09c0 1.09-.005 1.672.387 2.655.67 1.678 2.474 3.024 4.316 3.024 1 0 1.525-.083 2.393-.487 1.007-.467 1.97-1.533 2.38-2.566.476-1.193.377-2.363.377-3.68 0-.678-.127-1.235-.318-1.71-.187-.465-.654-1.18-1.037-1.477-.126-.098-.164-.15-.29-.237-1.09-.754-1.66-.794-3.018-.794-.741 0-.495.73-.88 1.715-.249.637-.538 1.054-.99 1.525l-.06.06c-.785.725-1.454 1.128-2.588 1.306-.404.063-.672.208-.672.666m3.285.933c.59 0 .487.224.779.518.114.116.164.185.314.254.469.216.989.14 1.322-.222.283-.308.22-.55.748-.55.639 0 .883.797-.115 1.59-.699.555-1.73.64-2.522.238-.397-.203-1.014-.788-1.044-1.227-.017-.272.233-.6.518-.6" clip-rule="evenodd"/></svg>