<svg xmlns="http://www.w3.org/2000/svg" width="18" height="17" fill="none" viewBox="0 0 18 17"><path fill="#868686" fill-rule="evenodd" d="M14.139 1.384a.276.276 0 0 1 .364.144.286.286 0 0 1-.155.372c-.335.127-.557-.367-.209-.516M8.42 12.548c-.42.636-.794 1.178-1.25 1.786-.29.385-.61.697-.55 1.295.084.862 1.077 1.638 2.14.819.308-.238 1.204-1.815 1.446-2.213.901-1.476 1.808-3.368 2.526-5.015.349-.8.766-1.854 1.05-2.684l.82-2.705c.18-.686.392-1.724.519-2.453.255-1.468-1.187-2.053-1.584-.288a25 25 0 0 1-.991 3.364c-1.159 2.872-2.422 5.513-4.126 8.094" clip-rule="evenodd"/><path fill="#868686" fill-rule="evenodd" d="m12.94 2.332.288-1.2c-2.133.156-5.915 1.305-8.312 1.864-1.372.32-2.743.623-4.112.94-.23.053-.44.098-.626.196-.414.219.001 1.85.174 2.219.1.214.59.003.834-.034.735-.329 8.167-1.728 8.413-1.997.27-.295.237-1.02.488-1.379.125-.178.425-.199.697-.251zm-4.365.117c.33-.072.722-.24.784.164.036.237.063.877.053 1.122-.077-.128-.125-.483-.167-.662-.063-.27-.036-.477-.375-.406-.419.087-.92.2-1.305.302C5.357 3.486 3.14 3.979.93 4.485c-.16.037-.34.05-.391.204-.047.139.038.868.025 1.094A9 9 0 0 1 .31 4.716c-.062-.377.203-.425.507-.493 2.587-.582 5.171-1.204 7.758-1.774M17.46 1.23c.246-.143.552-.361.54-.76-.344-.848-.643-.064-1.006.217-.63.488-1.313.358-1.533.483l-.145.735c.647-.072 1.644-.398 2.143-.674" clip-rule="evenodd"/></svg>