<svg xmlns="http://www.w3.org/2000/svg" width="18" height="21" fill="none" viewBox="0 0 18 21"><path fill="#868686" fill-rule="evenodd" d="M3.547 1.477c3.322-.565 3.859 4.517.895 5.029-3.433.593-4.076-4.487-.895-5.029m11.295.453C12.978 1.276 8.35.701 6.156.33 4.322.018 3.404-.34 1.796.646c-2.325 1.428-2.486 5.08.066 6.76 1.386.914 2.712.535 4.308.26 1.842-.318 7.313-1.05 8.673-1.615zM5.79 12.884c.048-1.973.27-2.9.64-4.66-.61.075-1.199.2-1.804.289-.833.122-1.124-.005-1.877.005l.003 4.399zm11.74-6.517c.552-1.551.732-3.319-.1-4.834l-2.008.4-.002 4.118c.636.238 1.44.418 2.11.316" clip-rule="evenodd"/><path fill="#868686" fill-rule="evenodd" d="M2.811 4.514c.386-.066.775-.051 1.232-.058.97-.013.93-.202 1.055.505-.392.1-.726.075-1.21.08-.883.011-.907.199-1.077-.527m1.079-.967c-.88.004-.92.2-1.078-.578l2.28.064c-.15.743-.355.511-1.202.515m-1.851.74c.12 1.001 1.04 1.77 2.138 1.666 1.061-.101 1.858-1.002 1.688-2.264-.328-2.43-4.152-2.111-3.827.598m2.488 13.143c-.084-1.09.152-.436-.337-.648-.206.456-.119.919-.113 1.505.202 2.228 3.61 2.324 4.082.16.213-.979-.293-2.658.533-3.085.82-.423 2.492.283 3.193-.333-.265-.672-2.38-.494-3.071-.337-.991.224-1.188 1.024-1.178 2.135.01 1.17.017 2.2-.967 2.546-1.548.545-2.046-.704-2.142-1.943M2.76 13.56c-.033 1.317.103 2.628 1.577 2.578 1.406-.048 1.492-1.276 1.44-2.622zm3.821-3.373c1.367-.021 1.522-.793 1.304-2.221-.85.132-.736-.079-.983.738q-.218.716-.32 1.482" clip-rule="evenodd"/></svg>