<svg width="24" height="24" viewBox="0 0 24 24" fill="none" xmlns="http://www.w3.org/2000/svg">
<g clip-path="url(#clip0_1463_1176)">
<path d="M0 0.662598H17.3334V4.93864C16.6975 4.75882 16.0266 4.6626 15.3334 4.6626C11.2833 4.6626 8 7.94585 8 11.9959C8 16.046 11.2833 19.3292 15.3334 19.3292C16.0266 19.3292 16.6975 19.2331 17.3334 19.0532V23.3292H0V0.662598Z" fill="white"/>
<path fill-rule="evenodd" clip-rule="evenodd" d="M15.333 17.9959C16.7497 17.9959 18.0515 17.5049 19.078 16.6839L22.8577 20.467C23.1179 20.7275 23.54 20.7276 23.8004 20.4675C24.0609 20.2073 24.0612 19.7851 23.8009 19.5246L20.0208 15.7411C20.842 14.7146 21.333 13.4125 21.333 11.9958C21.333 8.68214 18.6467 5.99585 15.333 5.99585C12.0193 5.99585 9.33301 8.68214 9.33301 11.9958C9.33301 15.3095 12.0193 17.9959 15.333 17.9959ZM15.333 16.6625C17.9103 16.6625 19.9997 14.5731 19.9997 11.9958C19.9997 9.41851 17.9103 7.32917 15.333 7.32917C12.7557 7.32917 10.6663 9.41851 10.6663 11.9958C10.6663 14.5731 12.7557 16.6625 15.333 16.6625Z" fill="white"/>
</g>
<defs>
<clipPath id="clip0_1463_1176">
<rect width="24" height="24" fill="white"/>
</clipPath>
</defs>
</svg>
