<svg width="13" height="13" viewBox="0 0 13 13" fill="none" xmlns="http://www.w3.org/2000/svg">
<g clip-path="url(#clip0_31_1005)">
<path d="M11.4443 9.87119C11.2527 10.3137 11.026 10.7211 10.7633 11.0956C10.4052 11.6062 10.112 11.9596 9.88606 12.1558C9.53577 12.478 9.16047 12.6429 8.7586 12.6523C8.47009 12.6523 8.12215 12.5702 7.71716 12.4037C7.31082 12.2379 6.9374 12.1558 6.59596 12.1558C6.23786 12.1558 5.8538 12.2379 5.44303 12.4037C5.03161 12.5702 4.70017 12.657 4.44676 12.6656C4.06137 12.682 3.67724 12.5123 3.29382 12.1558C3.0491 11.9423 2.743 11.5764 2.37628 11.058C1.98285 10.5045 1.6594 9.86258 1.40597 9.13074C1.1346 8.34026 0.998535 7.57482 0.998535 6.83377C0.998535 5.98488 1.18195 5.25276 1.54936 4.63922C1.83812 4.1464 2.22225 3.75767 2.70299 3.47228C3.18373 3.18688 3.70324 3.04146 4.26265 3.03216C4.56875 3.03216 4.97018 3.12684 5.469 3.31293C5.96644 3.49964 6.28583 3.59434 6.42586 3.59434C6.53055 3.59434 6.88537 3.48363 7.48686 3.2629C8.05568 3.05821 8.53575 2.97345 8.92901 3.00685C9.99469 3.09287 10.7953 3.51295 11.3278 4.2698C10.3747 4.8473 9.90323 5.65614 9.9126 6.69376C9.92121 7.50198 10.2144 8.17455 10.7906 8.70856C11.0518 8.95642 11.3434 9.14798 11.6679 9.284C11.5975 9.48805 11.5232 9.68352 11.4443 9.87119H11.4443ZM9.00018 0.253408C9.00018 0.886889 8.76874 1.47836 8.30745 2.02583C7.75076 2.67665 7.07742 3.05272 6.34723 2.99339C6.33746 2.91375 6.33255 2.83358 6.33254 2.75334C6.33254 2.14519 6.59728 1.49437 7.0674 0.962246C7.30213 0.692832 7.60064 0.46879 7.96265 0.290072C8.32388 0.114025 8.66556 0.0166497 8.9869 0C8.99627 0.0846836 9.00021 0.169367 9.00021 0.253383L9.00018 0.253408Z" fill="white"/>
</g>
<defs>
<clipPath id="clip0_31_1005">
<rect width="12.6667" height="12.6667" fill="white"/>
</clipPath>
</defs>
</svg>
