<svg width="22" height="22" viewBox="0 0 22 22" fill="none" xmlns="http://www.w3.org/2000/svg">
<g clip-path="url(#clip0_63_67)">
<path d="M18.3345 19.4992L16.6974 16.1003C16.3451 15.3742 15.8896 14.8456 15.1033 15.1679L13.5521 15.7437C12.3103 16.3195 11.6916 15.7437 11.0685 14.8757L8.27556 8.52064C7.92322 7.79446 8.10798 7.11126 8.89431 6.789L11.0642 5.92103C11.8506 5.59446 11.726 4.91556 11.3736 4.18939L9.51306 0.726104C9.16072 -6.73532e-05 8.43884 -0.176239 7.65251 0.146026C6.07986 0.794855 4.7779 1.81321 3.93142 3.32142C2.90017 5.16478 3.41579 7.73001 3.62204 8.80853C3.82829 9.88704 4.55017 11.7777 5.48259 13.7156C6.41501 15.6577 7.23142 17.1831 7.96619 18.0468C8.69665 18.9105 10.4498 21.2738 12.6197 21.8023C14.3986 22.232 16.3193 21.871 17.892 21.2222C18.6826 20.9128 18.6826 20.2296 18.3345 19.4992Z" fill="#8D8D8D"/>
</g>
<defs>
<clipPath id="clip0_63_67">
<rect width="22" height="22" fill="white"/>
</clipPath>
</defs>
</svg>
