<svg width="131" height="114" viewBox="0 0 131 114" fill="none" xmlns="http://www.w3.org/2000/svg">
<path d="M14.0463 113.788H10.7523L3.29393 102.503V113.788H0V97.3198H3.29393L10.7523 108.628V97.3198H14.0463V113.788Z" fill="#121212"/>
<path d="M29.4184 106.979C29.4184 107.45 29.387 107.874 29.3243 108.251H19.7954C19.8738 109.194 20.2032 109.932 20.7836 110.466C21.3639 111 22.0776 111.267 22.9246 111.267C24.1481 111.267 25.0186 110.741 25.5363 109.689H29.089C28.7125 110.945 27.991 111.982 26.9244 112.798C25.8578 113.599 24.5481 114 22.9952 114C21.7404 114 20.611 113.725 19.6072 113.175C18.619 112.61 17.8426 111.817 17.2779 110.796C16.7289 109.775 16.4544 108.597 16.4544 107.262C16.4544 105.911 16.7289 104.725 17.2779 103.704C17.8269 102.684 18.5955 101.898 19.5836 101.348C20.5718 100.799 21.709 100.524 22.9952 100.524C24.2344 100.524 25.3402 100.791 26.3127 101.325C27.3009 101.859 28.0616 102.621 28.5949 103.61C29.1439 104.584 29.4184 105.707 29.4184 106.979ZM26.0068 106.037C25.9911 105.189 25.6853 104.513 25.0892 104.011C24.4932 103.492 23.7638 103.233 22.9011 103.233C22.0855 103.233 21.3953 103.485 20.8306 103.987C20.2816 104.474 19.9444 105.157 19.8189 106.037H26.0068Z" fill="#121212"/>
<path d="M37.6106 114C36.3557 114 35.2264 113.725 34.2225 113.175C33.2187 112.61 32.4266 111.817 31.8462 110.796C31.2815 109.775 30.9992 108.597 30.9992 107.262C30.9992 105.927 31.2894 104.749 31.8697 103.728C32.4658 102.707 33.2736 101.922 34.2931 101.372C35.3127 100.807 36.4499 100.524 37.7047 100.524C38.9595 100.524 40.0967 100.807 41.1163 101.372C42.1358 101.922 42.9358 102.707 43.5161 103.728C44.1122 104.749 44.4102 105.927 44.4102 107.262C44.4102 108.597 44.1043 109.775 43.4926 110.796C42.8966 111.817 42.0809 112.61 41.0457 113.175C40.0261 113.725 38.8811 114 37.6106 114ZM37.6106 111.126C38.2066 111.126 38.7635 110.984 39.2811 110.702C39.8144 110.403 40.2379 109.963 40.5516 109.382C40.8653 108.801 41.0221 108.094 41.0221 107.262C41.0221 106.021 40.6928 105.071 40.034 104.411C39.3909 103.736 38.5988 103.398 37.6576 103.398C36.7165 103.398 35.9244 103.736 35.2813 104.411C34.6539 105.071 34.3402 106.021 34.3402 107.262C34.3402 108.503 34.646 109.461 35.2578 110.136C35.8852 110.796 36.6694 111.126 37.6106 111.126Z" fill="#121212"/>
<path d="M58.8022 102.432C58.8022 103.312 58.5905 104.136 58.167 104.906C57.7591 105.676 57.1082 106.296 56.2141 106.767C55.3357 107.238 54.2221 107.474 52.8731 107.474H50.1203V113.788H46.8264V97.3433H52.8731C54.1437 97.3433 55.2259 97.5632 56.12 98.003C57.0141 98.4428 57.6807 99.0475 58.1199 99.8171C58.5748 100.587 58.8022 101.458 58.8022 102.432ZM52.732 104.812C53.6417 104.812 54.3162 104.608 54.7554 104.199C55.1946 103.775 55.4142 103.186 55.4142 102.432C55.4142 100.83 54.5201 100.029 52.732 100.029H50.1203V104.812H52.732Z" fill="#121212"/>
<path d="M60.2939 107.215C60.2939 105.895 60.5527 104.725 61.0703 103.704C61.6036 102.684 62.3173 101.898 63.2113 101.348C64.1211 100.799 65.1328 100.524 66.2465 100.524C67.219 100.524 68.066 100.72 68.7875 101.113C69.5247 101.506 70.1129 102 70.5521 102.597V100.736H73.8696V113.788H70.5521V111.88C70.1286 112.492 69.5404 113.003 68.7875 113.411C68.0503 113.804 67.1954 114 66.2229 114C65.125 114 64.1211 113.717 63.2113 113.152C62.3173 112.586 61.6036 111.793 61.0703 110.772C60.5527 109.736 60.2939 108.55 60.2939 107.215ZM70.5521 107.262C70.5521 106.461 70.3953 105.778 70.0816 105.212C69.7678 104.631 69.3443 104.191 68.811 103.893C68.2777 103.579 67.7052 103.422 67.0935 103.422C66.4818 103.422 65.9171 103.571 65.3995 103.869C64.8818 104.168 64.4583 104.608 64.1289 105.189C63.8152 105.754 63.6584 106.429 63.6584 107.215C63.6584 108 63.8152 108.691 64.1289 109.288C64.4583 109.869 64.8818 110.317 65.3995 110.631C65.9328 110.945 66.4974 111.102 67.0935 111.102C67.7052 111.102 68.2777 110.953 68.811 110.655C69.3443 110.34 69.7678 109.901 70.0816 109.335C70.3953 108.754 70.5521 108.063 70.5521 107.262Z" fill="#121212"/>
<path d="M80.3806 102.762C80.8041 102.071 81.3531 101.529 82.0276 101.136C82.7177 100.744 83.502 100.547 84.3804 100.547V104.011H83.5098C82.4746 104.011 81.6903 104.254 81.157 104.741C80.6394 105.228 80.3806 106.076 80.3806 107.285V113.788H77.0867V100.736H80.3806V102.762Z" fill="#121212"/>
<path d="M89.8929 96.3538V113.788H86.599V96.3538H89.8929Z" fill="#121212"/>
<path d="M98.9353 114C97.6804 114 96.5511 113.725 95.5472 113.175C94.5434 112.61 93.7512 111.817 93.1709 110.796C92.6062 109.775 92.3239 108.597 92.3239 107.262C92.3239 105.927 92.614 104.749 93.1944 103.728C93.7905 102.707 94.5982 101.922 95.6178 101.372C96.6373 100.807 97.7745 100.524 99.0294 100.524C100.284 100.524 101.421 100.807 102.441 101.372C103.46 101.922 104.26 102.707 104.841 103.728C105.437 104.749 105.735 105.927 105.735 107.262C105.735 108.597 105.429 109.775 104.817 110.796C104.221 111.817 103.406 112.61 102.37 113.175C101.351 113.725 100.206 114 98.9353 114ZM98.9353 111.126C99.5313 111.126 100.088 110.984 100.606 110.702C101.139 110.403 101.563 109.963 101.876 109.382C102.19 108.801 102.347 108.094 102.347 107.262C102.347 106.021 102.017 105.071 101.359 104.411C100.716 103.736 99.9234 103.398 98.9823 103.398C98.0412 103.398 97.2491 103.736 96.606 104.411C95.9786 105.071 95.6648 106.021 95.6648 107.262C95.6648 108.503 95.9707 109.461 96.5825 110.136C97.2099 110.796 97.9941 111.126 98.9353 111.126Z" fill="#121212"/>
<path d="M120.456 100.736V113.788H117.139V112.139C116.715 112.704 116.159 113.152 115.468 113.482C114.794 113.796 114.057 113.953 113.257 113.953C112.237 113.953 111.335 113.741 110.551 113.317C109.767 112.877 109.147 112.241 108.692 111.408C108.253 110.56 108.033 109.555 108.033 108.393V100.736H111.327V107.922C111.327 108.958 111.586 109.759 112.104 110.325C112.621 110.874 113.327 111.149 114.221 111.149C115.131 111.149 115.845 110.874 116.362 110.325C116.88 109.759 117.139 108.958 117.139 107.922V100.736H120.456Z" fill="#121212"/>
<path d="M127 102.762C127.424 102.071 127.973 101.529 128.647 101.136C129.337 100.744 130.122 100.547 131 100.547V104.011H130.129C129.094 104.011 128.31 104.254 127.777 104.741C127.259 105.228 127 106.076 127 107.285V113.788H123.706V100.736H127V102.762Z" fill="#121212"/>
<path fill-rule="evenodd" clip-rule="evenodd" d="M104.86 1.09361C105.976 9.15477 103.897 15.8224 98.2739 21.129C91.9631 27.0919 85.4176 32.8118 79.0097 38.6774C78.2087 39.4065 77.788 39.4551 77.0355 38.6449C75.207 36.6762 73.3299 34.7561 71.372 32.9251C70.4577 32.0663 70.6196 31.6207 71.4691 30.8673C81.5827 21.8825 91.6638 12.8573 101.753 3.84019C102.692 3.00571 103.63 2.18734 104.868 1.10172L104.86 1.09361Z" fill="#361438"/>
<path fill-rule="evenodd" clip-rule="evenodd" d="M95.8061 43.2629C89.7137 39.5523 82.3511 39.5604 76.4043 43.2466C64.705 31.6693 53.038 20.0759 41.3953 8.44188C38.6606 5.69541 36.0474 2.82748 33.3693 0C32.9486 0.461795 32.8273 0.526617 32.8111 0.615735C31.4923 8.33663 32.6653 15.4093 38.3694 21.2182C41.3549 24.2564 44.4699 27.173 47.512 30.1544C51.6464 34.189 55.7809 38.2236 59.9153 42.2583C64.5756 47.3947 68.8798 52.1342 73.3621 57.0681C73.9042 55.7476 74.2279 54.8158 74.6487 53.9408C77.707 47.662 85.3447 45.021 91.6232 48.0511C96.1702 50.2466 99.0991 54.986 98.7026 59.9281C98.29 65.1293 95.5958 68.9371 90.6523 70.8167C85.5632 72.7449 80.7572 71.797 77.0354 67.8434C70.5466 60.957 64.341 53.8033 57.9331 46.8358C53.7501 42.2746 48.41 40.0546 42.1882 40.6298C33.7414 41.4157 27.3174 47.0544 25.3433 54.9535C23.4581 62.4962 26.7024 70.5818 33.3126 74.7947C40.3193 79.2668 48.6287 78.9912 55.5059 73.8142C57.2373 72.5018 58.3862 72.2346 59.527 74.1709C59.527 74.1709 66.2909 78.1245 71.0483 77.5979C65.9996 71.9996 61.315 66.8146 56.4686 61.4269C55.9265 62.7799 55.6109 63.7359 55.174 64.6271C52.148 70.7033 45.109 73.2877 38.7982 70.6709C32.7705 68.1675 29.6879 61.2811 31.8562 55.14C34.9712 46.2606 46.5735 43.911 53.1999 50.9676C59.6078 57.7811 65.6841 64.8944 72.0677 71.7323C77.1569 77.1847 83.5567 79.0803 90.8708 77.2331C98.4842 75.313 104.099 69.1072 104.892 61.7185C105.742 53.787 102.748 47.4838 95.8142 43.2629H95.8061ZM67.5611 44.2837C66.3394 44.4052 65.1581 43.2225 65.1257 41.9667C65.1096 40.7434 66.2746 39.5766 67.4963 39.5928C68.7423 39.609 69.9317 40.7837 69.8266 42.0071C69.7133 43.36 68.888 44.154 67.5611 44.2837Z" fill="#EF3E23"/>
</svg>
