<?xml version="1.0" encoding="UTF-8"?>
<!DOCTYPE svg PUBLIC "-//W3C//DTD SVG 1.1//EN" "http://www.w3.org/Graphics/SVG/1.1/DTD/svg11.dtd">
<!-- Creator: CorelDRAW 2021 (64-Bit) -->
<svg xmlns="http://www.w3.org/2000/svg" xml:space="preserve" width="95.4552mm" height="101.481mm" version="1.1" style="shape-rendering:geometricPrecision; text-rendering:geometricPrecision; image-rendering:optimizeQuality; fill-rule:evenodd; clip-rule:evenodd"
viewBox="0 0 3815.37 4056.23"
 xmlns:xlink="http://www.w3.org/1999/xlink"
 xmlns:xodm="http://www.corel.com/coreldraw/odm/2003">
 <defs>
  <style type="text/css">
   <![CDATA[
    .fil2 {fill:#253245}
    .fil4 {fill:#6B6B6B}
    .fil0 {fill:#909090}
    .fil3 {fill:#FBD1B1}
    .fil1 {fill:#FF0B01}
   ]]>
  </style>
 </defs>
 <g id="Layer_x0020_1">
  <metadata id="CorelCorpID_0Corel-Layer"/>
  <path class="fil0" d="M2781.61 1331.33l55.15 -15.82c-9.92,89.92 -18.14,264.68 -37.93,342.76 -30.52,120.41 -172.97,173.44 -174.29,175.22 -20.42,77.18 -19.38,131.51 -61.98,181.27l5.58 49.48c-0.12,0.88 -11.1,38 -12.73,42.67l-78.92 175.67c-27.46,40.64 -33.91,29.81 -53.01,70.61 -4.63,93.53 5.53,215.71 15.54,310.57 9.07,85.95 40.95,196.55 34.37,272.99l15.3 8.19c144.35,46.21 318.77,122.27 462.66,178.08 80.02,31.04 149.07,57.82 233.77,92.9 68.19,28.24 166.55,60.24 230.73,96.26 114.62,-96.68 278.68,-454.85 334.46,-659.36 215.14,-788.84 -118.5,-1683.16 -777.29,-2088.66 7.94,132.66 -36.3,125.69 -55.02,216.23 -23.55,114 63.74,86.95 55.77,205.91l-121.67 290.29c-35.58,53.56 -29.5,21.78 -70.5,54.75z"/>
  <path class="fil0" d="M392.12 3296.36c64.28,-12.42 160.08,-63.21 219.6,-87.11 76.71,-30.8 145.26,-56.3 223.7,-87.47 107.6,-42.76 364.38,-154.29 465.53,-172.54 9.35,-67.97 27.14,-136.58 37.09,-212.31 5.21,-39.64 7.47,-74.57 11.28,-115.09 3.64,-38.65 -4.5,-85.36 27.03,-80.68 -29.03,-49.16 -13.1,-102.96 -8.99,-176.99 -22.97,-33.95 -36.05,-35.12 -61.14,-76.92 -13.55,-22.57 -34.3,-64.24 -47.12,-95.17 -15.59,-37.63 -56.95,-153.8 -53.9,-185.57l-46.48 -173.02c-202.75,-98.76 -171.94,-160.9 -195.43,-359.89 -1.63,-13.85 -9.74,-67.07 -10.09,-77.66 -2.83,-86.46 5.45,-65.38 19.17,-73.75 -32.8,-45.37 -69.72,-119.37 -106.84,-159.9 -40.53,-44.25 -99.81,-80.47 -91.49,-172.07 13.13,-144.59 87.55,-12.82 99.61,-438.22 -90.96,41.41 -211,149.56 -279.47,214.62 -597.26,567.52 -771.29,1474.04 -397.99,2221.22 38.64,77.34 143.49,266.09 195.94,308.53z"/>
  <path class="fil1" d="M392.12 3296.36c30.64,70.36 193.01,233.15 263.93,289.61 365.92,291.3 703.42,463.3 1230.54,470.09 578.55,7.45 1113.63,-251.37 1465.8,-657.89l63.47 -86c-64.18,-36.02 -162.54,-68.02 -230.73,-96.26 -84.71,-35.08 -153.75,-61.87 -233.77,-92.9 -143.89,-55.8 -318.32,-131.87 -462.66,-178.08 -149.9,123.3 -364.05,141.03 -602.14,140.69 -114.4,-0.16 -232.65,-5.25 -337.25,-29.47 -133.59,-30.92 -144.09,-41.9 -248.35,-106.92 -101.14,18.25 -357.93,129.78 -465.53,172.54 -78.44,31.17 -146.99,56.67 -223.7,87.47 -59.52,23.9 -155.32,74.69 -219.6,87.11z"/>
  <path class="fil2" d="M873.65 551.99c-12.06,425.4 -86.47,293.63 -99.61,438.22 -8.32,91.6 50.96,127.82 91.49,172.07 37.12,40.53 74.03,114.53 106.84,159.9 147.6,88.12 83.06,152.23 158.29,236.35 4.59,-131.91 34.64,-244.21 32.76,-359.2 -2.51,-153.57 -10.29,-225.78 133.12,-266.26 310.14,-87.55 162.85,-257.44 505.45,-305.46l39.42 67.03c54.96,70.56 157.89,54.16 234.55,103.91 117.52,76.28 65.63,210.97 208.5,241.87 431.06,93.21 262.7,94.06 326.51,337.94 21.57,82.42 30.36,94.31 33.6,192.82 13.34,-17.04 -0.34,7.27 19.25,-30.05 45.58,-86.86 37.09,-166.3 117.78,-209.82 41.01,-32.98 34.92,-1.19 70.5,-54.75l121.67 -290.29c7.97,-118.96 -79.32,-91.91 -55.77,-205.91 18.71,-90.54 62.96,-83.57 55.02,-216.23 -80.5,-388.61 -322.16,-348.04 -420.82,-411.65 -89.55,-57.74 -134.62,-137.89 -284.59,-134.47 -123.4,2.81 -229.92,61.95 -352.98,67.94 -154.5,7.51 -205.73,-76.25 -325.28,-85.27 -125.62,-9.47 -214.65,78.95 -290.85,130.39 -246.34,166.28 -412.76,6.09 -424.86,420.9z"/>
  <path class="fil3" d="M972.36 1322.18c-13.72,8.37 -22,-12.7 -19.17,73.75 0.35,10.6 8.45,63.81 10.09,77.66 23.49,198.99 -7.32,261.13 195.43,359.89l46.48 173.02c65.59,48.47 107.15,131.98 201.97,169 73.33,-32.75 117.05,-94.42 191.65,-136.54 109.12,-61.61 168.62,-36.69 287.78,-34.95 126.99,1.85 165.76,-31.19 290.67,31.93 175.86,88.86 139.2,261.78 385.3,-21.18 42.6,-49.76 41.56,-104.09 61.98,-181.27 1.33,-1.78 143.77,-54.81 174.29,-175.22 19.79,-78.07 28.01,-252.84 37.93,-342.76l-55.15 15.82c-80.7,43.52 -72.2,122.95 -117.78,209.82 -19.59,37.32 -5.91,13 -19.25,30.05 -3.25,-98.51 -12.04,-110.4 -33.6,-192.82 -63.81,-243.88 104.55,-244.73 -326.51,-337.94 -142.87,-30.89 -90.98,-165.59 -208.5,-241.87 -76.66,-49.75 -179.6,-33.36 -234.55,-103.91l-39.42 -67.03c-342.61,48.03 -195.31,217.92 -505.45,305.46 -143.41,40.48 -135.64,112.69 -133.12,266.26 1.88,114.99 -28.17,227.28 -32.76,359.2 -75.23,-84.12 -10.69,-148.23 -158.29,-236.35z"/>
  <path class="fil2" d="M1367.36 2364.16l215.33 182.31c95.35,68.98 170.03,87.16 318,86.66 345.3,-1.16 355.1,-160.53 522.79,-279.96 19.1,-40.8 25.55,-29.97 53.01,-70.61l78.92 -175.67c1.62,-4.67 12.61,-41.79 12.73,-42.67l-5.58 -49.48c-246.1,282.95 -209.44,110.03 -385.3,21.18 -124.91,-63.12 -163.68,-30.08 -290.67,-31.93 -119.16,-1.73 -178.66,-26.65 -287.78,34.95 -74.6,42.12 -118.32,103.79 -191.65,136.54 -94.82,-37.02 -136.38,-120.53 -201.97,-169 -3.05,31.78 38.31,147.95 53.9,185.57 12.82,30.93 33.57,72.6 47.12,95.17 25.09,41.8 38.17,42.96 61.14,76.92z"/>
  <path class="fil4" d="M1367.36 2364.16c-4.11,74.04 -20.04,127.83 8.99,176.99 84.11,46.15 134.06,97.41 209.76,156.8 70.4,55.24 144.83,102.64 238.63,142.6 236.79,100.89 388.82,77.84 648.66,96.18 6.59,-76.44 -25.29,-187.04 -34.37,-272.99 -10.01,-94.86 -20.17,-217.04 -15.54,-310.57 -167.69,119.43 -177.49,278.8 -522.79,279.96 -147.97,0.5 -222.65,-17.68 -318,-86.66l-215.33 -182.31z"/>
  <path class="fil3" d="M1300.96 2949.25c104.26,65.01 114.76,75.99 248.35,106.92 104.6,24.21 222.85,29.31 337.25,29.47 238.09,0.34 452.24,-17.39 602.14,-140.69l-15.3 -8.19c-259.84,-18.34 -411.87,4.7 -648.66,-96.18 -93.8,-39.96 -168.23,-87.36 -238.63,-142.6 -75.7,-59.4 -125.65,-110.65 -209.76,-156.8 -31.54,-4.67 -23.39,42.03 -27.03,80.68 -3.81,40.52 -6.07,75.45 -11.28,115.09 -9.95,75.73 -27.74,144.35 -37.09,212.31z"/>
  <path class="fil3" d="M2279.82 2287.87c-5.59,-94.46 -31.6,-117.08 -125.79,-125.56 -384.75,-34.64 -55.89,-49.4 -479.3,-3.13 -337.44,36.87 -82.37,265.85 211.79,270.44 120.23,1.88 337.41,-86.23 393.3,-141.75z"/>
 </g>
</svg>
