<svg xmlns="http://www.w3.org/2000/svg" width="53" height="53" fill="none" viewBox="0 0 53 53"><path fill="#8d8d8d" fill-rule="evenodd" d="M35.333 19.875a8.833 8.833 0 1 1-17.667 0 8.833 8.833 0 0 1 17.667 0m-4.417 0a4.417 4.417 0 1 1-8.833 0 4.417 4.417 0 0 1 8.833 0" clip-rule="evenodd"/><path fill="#8d8d8d" fill-rule="evenodd" d="M26.5 2.208C13.084 2.208 2.208 13.084 2.208 26.5S13.084 50.792 26.5 50.792c13.415 0 24.291-10.876 24.291-24.292S39.915 2.208 26.5 2.208M6.625 26.5a19.8 19.8 0 0 0 4.213 12.239 19.85 19.85 0 0 1 15.805-7.822 19.83 19.83 0 0 1 15.662 7.636A19.876 19.876 0 1 0 6.625 26.5M26.5 46.375a19.8 19.8 0 0 1-12.526-4.443 15.44 15.44 0 0 1 12.67-6.599 15.43 15.43 0 0 1 12.562 6.449A19.8 19.8 0 0 1 26.5 46.375" clip-rule="evenodd"/></svg>