<svg width="22" height="22" viewBox="0 0 22 22" fill="none" xmlns="http://www.w3.org/2000/svg">
<path d="M10.0154 19.5755C10.0154 19.9377 10.1593 20.2851 10.4154 20.5412C10.6715 20.7973 11.0189 20.9412 11.3811 20.9412C11.7434 20.9412 12.0907 20.7973 12.3469 20.5412C12.603 20.2851 12.7469 19.9377 12.7469 19.5755V13.6573H18.6651C19.0273 13.6573 19.3747 13.5134 19.6308 13.2573C19.8869 13.0011 20.0308 12.6538 20.0308 12.2915C20.0308 11.9293 19.8869 11.5819 19.6308 11.3258C19.3747 11.0697 19.0273 10.9258 18.6651 10.9258H12.7469V5.00759C12.7469 4.64537 12.603 4.29799 12.3469 4.04186C12.0907 3.78574 11.7434 3.64185 11.3811 3.64185C11.0189 3.64185 10.6715 3.78574 10.4154 4.04186C10.1593 4.29799 10.0154 4.64537 10.0154 5.00759V10.9258H4.09719C3.73497 10.9258 3.38759 11.0697 3.13146 11.3258C2.87534 11.5819 2.73145 11.9293 2.73145 12.2915C2.73145 12.6538 2.87534 13.0011 3.13146 13.2573C3.38759 13.5134 3.73497 13.6573 4.09719 13.6573H10.0154V19.5755Z" fill="white"/>
</svg>
