<svg xmlns="http://www.w3.org/2000/svg" width="20" height="20" fill="none" viewBox="0 0 20 20"><path fill="#868686" d="m4.27 18.525 1.236-.981 1.406.697-.525-1.508 1.08-1.157-1.559.05-.739-1.413-.438 1.54-1.538.285 1.291.902zM10 20l.59-1.485 1.557-.118-1.19-1.037.373-1.558-1.328.844-1.328-.844.372 1.558-1.193 1.037 1.556.118zM5.399 8.773c.722-.278 1.645-.632 2.31-1.055.761.725 1.256 1.551 1.295 2.555h1.999c.039-1.004.534-1.83 1.295-2.555.664.423 1.587.776 2.31 1.055 2.129.817 1.089 2.31-.153 3.568a6.24 6.24 0 0 1-4.453 1.864c-1.74 0-3.313-.71-4.454-1.864-1.223-1.24-2.293-2.746-.15-3.568m3.035-2.075c.033-.274-.755-1.313-.898-1.813-.31-.501-.418-1.304-.082-1.835.136-.211.077-.589.077-.878 0-2.894 4.936-2.898 4.936 0 0 .366-.08.645.113.933.324.481.156 1.336-.117 1.784-.175.523-1.001 1.515-.943 1.812.049 1.483-3.097 1.435-3.086-.003M20 14.136l-.955-1.267.678-1.444-1.47.541-1.126-1.11.05 1.602-1.376.759 1.499.448.276 1.58.878-1.326zm-4.27 4.39-.21-1.59 1.29-.904-1.537-.286-.436-1.54-.739 1.414-1.56-.05 1.08 1.156-.53 1.512 1.406-.697zM0 14.134l1.548-.216.879 1.326.278-1.578 1.5-.448-1.376-.76.049-1.601-1.128 1.11-1.473-.543.678 1.444z"/></svg>