<svg xmlns="http://www.w3.org/2000/svg" width="14" height="15" fill="none" viewBox="0 0 14 15"><path fill="#868686" d="M8.428 12.75a.75.75 0 0 1 .558 1.251 3 3 0 0 1-4.47 0 .75.75 0 0 1 .476-1.246l.082-.004zM6.75 0c1.019 0 1.88.677 2.157 1.606l.034.128.006.032a6 6 0 0 1 3.018 4.552l.021.215.014.217v2.198l.016.102a2.25 2.25 0 0 0 .857 1.385l.126.088.121.075c.645.365.42 1.324-.283 1.397L12.75 12h-12c-.77 0-1.04-1.023-.37-1.402A2.25 2.25 0 0 0 1.487 9.05l.015-.107.001-2.227a6 6 0 0 1 2.866-4.841l.186-.11.007-.032A2.25 2.25 0 0 1 6.483.016l.136-.013z"/></svg>