<svg xmlns="http://www.w3.org/2000/svg" width="20" height="20" fill="none" viewBox="0 0 20 20"><path fill="#868686" fill-rule="evenodd" d="M6.7.382c2.17-.51 4.43-.51 6.6 0A8.48 8.48 0 0 1 19.618 6.7c.51 2.17.51 4.43 0 6.6a8.48 8.48 0 0 1-6.318 6.318c-2.17.51-4.43.51-6.6 0A8.48 8.48 0 0 1 .382 13.3c-.51-2.17-.51-4.43 0-6.6A8.48 8.48 0 0 1 6.7.382m4.956 7.41a.425.425 0 0 1 .553.553l-.867 2.167a1.5 1.5 0 0 1-.83.83l-2.167.866a.425.425 0 0 1-.553-.553l.867-2.167a1.5 1.5 0 0 1 .83-.83zm1.738 1.027c.555-1.39-.823-2.768-2.213-2.213l-2.167.867a2.77 2.77 0 0 0-1.54 1.541l-.868 2.167c-.555 1.39.823 2.768 2.213 2.213l2.167-.867a2.77 2.77 0 0 0 1.54-1.541z" clip-rule="evenodd"/></svg>