<svg xmlns="http://www.w3.org/2000/svg" width="22" height="22" fill="none" viewBox="0 0 22 22"><path fill="#868686" d="M13.9 2.75a2.75 2.75 0 0 0-2.679 2.126H3.5a.75.75 0 1 0 0 1.5h7.793a2.751 2.751 0 0 0 5.215 0H18.5a.75.75 0 0 0 0-1.5h-1.921A2.75 2.75 0 0 0 13.9 2.75m-7 5.5c-1.265 0-2.33.854-2.651 2.017l-.769.02a.75.75 0 0 0 .04 1.5l.738-.02a2.751 2.751 0 0 0 5.278.02H18.5a.75.75 0 0 0 0-1.5H9.557A2.75 2.75 0 0 0 6.9 8.25m7 5.5a2.75 2.75 0 0 0-2.631 1.947H3.5a.75.75 0 1 0 0 1.5h7.74a2.751 2.751 0 0 0 5.32 0h1.94a.75.75 0 0 0 0-1.5h-1.969A2.75 2.75 0 0 0 13.9 13.75"/></svg>